#N canvas 733 40 769 758 10;
#X obj 70 226 dac~;
#X obj 70 80 *~;
#X obj 140 80 hsl 128 15 0 10 0 0 empty empty Gain -2 -8 0 10 #fcfcfc
#000000 #000000 2500 1;
#X obj 70 190 *~;
#X obj 130 186 hsl 128 15 0 1 0 0 empty empty Output -2 -8 0 10 #fcfcfc
#000000 #000000 2200 1;
#X obj 110 130 delwrite~ audiobuffer 5000;
#X obj 30 340 delread~ audiobuffer 0;
#X floatatom 30 310 5 0 0 0 - - -, f 5;
#X obj 30 280 hsl 128 15 0 5000 0 0 empty empty Delay\ time -2 -8 0
10 #fcfcfc #000000 #000000 1900 1;
#X obj 30 420 *~;
#X obj 50 390 hsl 128 15 0 1 0 0 empty empty Delay\ Volume -2 -8 0
10 #fcfcfc #000000 #000000 2300 1;
#X obj 30 470 dac~;
#X obj 380 20 bng 15 250 50 0 empty empty empty 17 7 0 10 #fcfcfc #000000
#000000;
#X msg 380 50 open Drum.wav \, 1, f 41;
#X obj 70 10 adc~ 1;
#X obj 200 380 *~;
#X obj 210 350 hsl 128 15 0 1 0 0 empty empty Feedback\ amnt -2 -8
0 10 #fcfcfc #000000 #000000 2200 1;
#X obj 170 100 receive~ feedback-sig;
#X obj 200 410 send~ feedback-sig;
#X obj 380 80 readsf~;
#X obj 380 540 dac~;
#X obj 480 460 *~, f 2;
#X obj 540 400 hsl 128 15 0 1 0 0 empty empty Output -2 -8 0 10 #fcfcfc
#000000 #000000 3500 1;
#X obj 380 140 *~;
#X obj 410 110 hsl 128 15 0 1 0 0 empty empty Gain -2 -8 0 10 #fcfcfc
#000000 #000000 3700 1;
#X obj 320 90 adc~ 1;
#X floatatom 280 290 5 0 1 0 - - -, f 5;
#X obj 380 350 *~;
#X obj 420 440 *~;
#X obj 460 310 rev2~ 100 90 3000 20;
#X obj 430 150 hsl 128 15 0 100 0 0 empty empty Reverb\ level -2 -8
0 10 #fcfcfc #000000 #000000 12700 1;
#X obj 460 180 hsl 128 15 0 200 0 0 empty empty Feedback -2 -8 0 10
#fcfcfc #000000 #000000 5900 1;
#X floatatom 510 280 5 0 0 0 - - -, f 5;
#X obj 500 210 hsl 128 15 0 5000 0 0 empty empty Frequency\ threshold
-2 -8 0 10 #fcfcfc #000000 #000000 7200 1;
#X floatatom 550 280 5 0 0 0 - - -, f 5;
#X obj 560 240 hsl 128 15 0 100 0 0 empty empty Dampening -2 -8 0 10
#fcfcfc #000000 #000000 2100 1;
#X floatatom 590 280 5 0 0 0 - - -, f 5;
#X obj 240 250 hsl 128 15 0 1 0 0 empty empty Orignial\ audio -2 -8
0 10 #fcfcfc #000000 #000000 4600 1;
#X floatatom 470 280 5 0 0 0 - - -, f 5;
#X connect 1 0 3 0;
#X connect 1 0 5 0;
#X connect 2 0 1 1;
#X connect 3 0 0 0;
#X connect 3 0 0 1;
#X connect 4 0 3 1;
#X connect 6 0 9 0;
#X connect 6 0 15 0;
#X connect 7 0 6 0;
#X connect 8 0 7 0;
#X connect 9 0 11 0;
#X connect 9 0 11 1;
#X connect 10 0 9 1;
#X connect 12 0 13 0;
#X connect 13 0 19 0;
#X connect 14 0 1 0;
#X connect 15 0 18 0;
#X connect 16 0 15 1;
#X connect 17 0 5 0;
#X connect 21 0 20 1;
#X connect 22 0 21 1;
#X connect 22 0 28 1;
#X connect 23 0 27 0;
#X connect 23 0 29 0;
#X connect 24 0 23 1;
#X connect 25 0 23 0;
#X connect 26 0 27 1;
#X connect 27 0 20 0;
#X connect 27 0 20 1;
#X connect 28 0 20 0;
#X connect 29 0 28 0;
#X connect 29 1 21 0;
#X connect 30 0 38 0;
#X connect 31 0 32 0;
#X connect 32 0 29 2;
#X connect 33 0 34 0;
#X connect 34 0 29 3;
#X connect 35 0 36 0;
#X connect 36 0 29 4;
#X connect 37 0 26 0;
#X connect 38 0 29 1;
