#N canvas -8 -8 1538 770 10;
#X obj 440 520 dac~;
#X obj 540 440 *~, f 2;
#X obj 600 380 hsl 128 15 0 1 0 0 empty empty Output -2 -8 0 10 #fcfcfc
#000000 #000000 3700 1;
#X obj 440 120 *~;
#X obj 470 90 hsl 128 15 0 1 0 0 empty empty Gain -2 -8 0 10 #fcfcfc
#000000 #000000 5300 1;
#X obj 440 40 adc~ 1;
#X floatatom 300 270 5 0 1 0 - - -, f 5;
#X obj 440 330 *~;
#X obj 480 420 *~;
#X obj 520 290 rev2~ 100 90 3000 20;
#X obj 490 130 hsl 128 15 0 100 0 0 empty empty Reverb\ level -2 -8
0 10 #fcfcfc #000000 #000000 12700 1;
#X obj 520 160 hsl 128 15 0 200 0 0 empty empty Feedback -2 -8 0 10
#fcfcfc #000000 #000000 6000 1;
#X floatatom 570 260 5 0 0 0 - - -, f 5;
#X obj 560 190 hsl 128 15 0 5000 0 0 empty empty Frequency\ threshold
-2 -8 0 10 #fcfcfc #000000 #000000 5200 1;
#X floatatom 610 260 5 0 0 0 - - -, f 5;
#X obj 620 220 hsl 128 15 0 100 0 0 empty empty Dampening -2 -8 0 10
#fcfcfc #000000 #000000 0 1;
#X floatatom 650 260 5 0 0 0 - - -, f 5;
#X obj 300 230 hsl 128 15 0 1 0 0 empty empty Orignial\ audio -2 -8
0 10 #fcfcfc #000000 #000000 6800 1;
#X floatatom 530 260 5 0 0 0 - - -, f 5;
#X connect 1 0 0 1;
#X connect 2 0 1 1;
#X connect 2 0 8 1;
#X connect 3 0 7 0;
#X connect 3 0 9 0;
#X connect 4 0 3 1;
#X connect 5 0 3 0;
#X connect 6 0 7 1;
#X connect 7 0 0 0;
#X connect 7 0 0 1;
#X connect 8 0 0 0;
#X connect 9 0 8 0;
#X connect 9 1 1 0;
#X connect 10 0 18 0;
#X connect 11 0 12 0;
#X connect 12 0 9 2;
#X connect 13 0 14 0;
#X connect 14 0 9 3;
#X connect 15 0 16 0;
#X connect 16 0 9 4;
#X connect 17 0 6 0;
#X connect 18 0 9 1;
