#N canvas 0 0 1522 754 10;
#X obj 60 20 bng 15 250 50 0 empty empty empty 17 7 0 10 #fcfcfc #000000
#000000;
#X obj 60 90 readsf~;
#X obj 60 320 *~ 1;
#X msg 60 60 open Drum.wav \, 1, f 41;
#X obj 80 190 delwrite~ DelayName1 1000;
#X obj 80 290 delread~ DelayName1 500;
#X floatatom 80 260 5 0 0 0 - - -, f 5;
#X obj 180 230 *~ 0.5;
#X obj 370 320 *~ 1;
#X floatatom 390 260 5 0 0 0 - - -, f 5;
#X obj 490 230 *~ 0.5;
#X obj 390 190 delwrite~ DelayName2 1000;
#X obj 390 290 delread~ DelayName2 500;
#X obj 592 322 *~ 1;
#X floatatom 612 262 5 0 0 0 - - -, f 5;
#X obj 712 232 *~ 0.5;
#X obj 803 312 *~ 1;
#X floatatom 823 252 5 0 0 0 - - -, f 5;
#X obj 923 222 *~ 0.5;
#X obj 612 192 delwrite~ DelayName3 1000;
#X obj 823 182 delwrite~ DelayName4 1000;
#X obj 612 292 delread~ DelayName3 500;
#X obj 823 282 delread~ DelayName4 500;
#X obj 340 230 hsl 128 15 0 1553 0 0 empty empty empty -2 -8 0 10 #fcfcfc
#000000 #000000 0 1;
#X obj 20 230 hsl 128 15 0 1613 0 0 empty empty empty -2 -8 0 10 #fcfcfc
#000000 #000000 0 1;
#X obj 780 220 hsl 128 15 0 1493 0 0 empty empty empty -2 -8 0 10 #fcfcfc
#000000 #000000 0 1;
#X obj 560 220 hsl 128 15 0 1153 0 0 empty empty empty -2 -8 0 10 #fcfcfc
#000000 #000000 0 1;
#X obj 570 480 allpass~;
#X obj 780 380 hsl 128 15 0 1 0 0 empty empty Gain -2 -8 0 10 #fcfcfc
#000000 #000000 0 1;
#X floatatom 780 410 5 0 0 0 - - -, f 5;
#X obj 660 340 hsl 128 15 0 1000 0 0 empty empty Delay\ time -2 -8
0 10 #fcfcfc #000000 #000000 0 1;
#X floatatom 660 370 5 0 0 0 - - -, f 5;
#X obj 560 640 dac~;
#X obj 570 560 allpass~;
#X obj 860 530 hsl 128 15 0 1 0 0 empty empty Gain -2 -8 0 10 #fcfcfc
#000000 #000000 0 1;
#X floatatom 860 560 5 0 0 0 - - -, f 5;
#X obj 710 470 hsl 128 15 0 1000 0 0 empty empty Delay\ time -2 -8
0 10 #fcfcfc #000000 #000000 0 1;
#X floatatom 710 500 5 0 0 0 - - -, f 5;
#X connect 0 0 3 0;
#X connect 1 0 2 0;
#X connect 1 0 4 0;
#X connect 1 0 11 0;
#X connect 1 0 8 0;
#X connect 1 0 13 0;
#X connect 1 0 16 0;
#X connect 1 0 19 0;
#X connect 1 0 20 0;
#X connect 2 0 27 0;
#X connect 3 0 1 0;
#X connect 5 0 2 0;
#X connect 5 0 7 0;
#X connect 6 0 5 0;
#X connect 7 0 4 0;
#X connect 8 0 27 0;
#X connect 9 0 12 0;
#X connect 10 0 11 0;
#X connect 12 0 8 0;
#X connect 12 0 10 0;
#X connect 13 0 27 0;
#X connect 14 0 21 0;
#X connect 15 0 19 0;
#X connect 16 0 27 0;
#X connect 17 0 22 0;
#X connect 18 0 20 0;
#X connect 21 0 13 0;
#X connect 21 0 15 0;
#X connect 22 0 16 0;
#X connect 22 0 18 0;
#X connect 23 0 9 0;
#X connect 24 0 6 0;
#X connect 25 0 17 0;
#X connect 26 0 14 0;
#X connect 27 0 33 0;
#X connect 28 0 29 0;
#X connect 29 0 27 2;
#X connect 30 0 31 0;
#X connect 31 0 27 1;
#X connect 33 0 32 0;
#X connect 33 0 32 1;
#X connect 34 0 35 0;
#X connect 35 0 33 2;
#X connect 36 0 37 0;
#X connect 37 0 33 1;
